<svg viewBox="0 0 186 44" fill="none" xmlns="http://www.w3.org/2000/svg">
<g id="Layer_1" clip-path="url(#clip0_1657_2089)">
<path id="Vector" d="M0 23.6741C0 12.2668 8.9876 3.18248 20.2946 3.18248C26.093 3.18248 31.8915 6.00322 35.2463 9.98539L31.5187 16.4564C28.6195 13.3039 24.602 10.9809 20.1289 10.9809C13.9163 10.9809 8.86333 16.6224 8.86333 23.5082C8.86333 30.6015 13.9991 36.2013 20.5017 36.2013C26.1344 36.2013 30.2762 32.7999 34.5008 24.9186L37.8142 18.7379C43.4055 8.28467 50.4051 3.18248 59.0199 3.18248C69.9956 3.18248 78.6933 12.018 78.6933 23.1763C78.6933 24.1304 78.6104 25.2504 78.4447 26.3289H56.5349V19.5675H69.5814C68.0904 14.2994 63.9486 10.9809 58.8543 10.9809C53.2215 10.9809 49.0383 14.4653 44.6481 22.5956L41.1276 29.1496C35.7847 39.105 28.9509 43.9998 20.336 43.9998C8.9876 43.9998 0 34.9984 0 23.6741ZM49.7838 31.6384C51.979 34.3762 55.7065 36.1598 59.517 36.1598C63.3274 36.1598 67.055 34.3762 69.2501 31.6384L74.9243 37.5287C70.9896 41.6354 65.5225 43.9584 59.5998 43.9584C53.5943 43.9584 48.0857 41.6354 44.1096 37.5287L49.7838 31.6384ZM84.3261 21.2682C84.3261 10.6076 91.4085 3.09951 101.39 3.09951C102.218 3.09951 103.212 3.18248 104.041 3.34843V11.3957C103.254 11.2713 102.633 11.2298 102.136 11.2298C96.5442 11.2298 93.0237 15.212 93.0237 21.6001V43.0457H84.3261V21.2682ZM127.11 3.18248C138.086 3.18248 146.784 12.018 146.784 23.1763C146.784 24.1304 146.701 25.2504 146.535 26.3289H124.625V19.5675H137.672C136.181 14.2994 132.039 10.9809 126.945 10.9809C120.732 10.9809 115.679 16.6224 115.679 23.5082C115.679 30.56 120.939 36.1598 127.607 36.1598C131.418 36.1598 135.145 34.3762 137.34 31.6384L143.015 37.5287C139.08 41.6354 133.613 43.9584 127.69 43.9584C116.052 43.9584 106.816 34.9569 106.816 23.6741C106.816 12.2668 115.803 3.18248 127.11 3.18248ZM152.499 31.4725C156.061 34.4177 160.948 36.2843 165.214 36.2843C168.776 36.2843 171.261 34.5421 171.261 32.0947C171.261 30.0622 169.688 28.6518 166.416 27.6977L159.126 25.5408C153.286 23.7985 150.056 20.2312 150.056 15.3779C150.056 8.11872 155.937 2.9751 164.262 2.9751C169.439 2.9751 174.492 4.75875 178.799 7.86984L175.113 14.5483C171.386 12.2254 167.12 10.7735 164.096 10.7735C160.824 10.7735 158.753 12.1424 158.753 14.3409C158.753 16.0416 160.286 17.4105 163.061 18.2401L170.06 20.3141C176.397 22.1808 179.959 26.1215 179.959 31.514C179.959 39.1465 174.243 43.9998 165.132 43.9998C159.126 43.9998 153.203 41.8013 148.523 37.8606L152.499 31.4725Z" fill="#F46900"/>
<path id="Vector_2" d="M186 3.46273C186 5.42631 184.484 6.96762 182.51 6.96762C180.557 6.96762 178.999 5.42631 178.999 3.46273C178.999 1.54131 180.557 0 182.51 0C184.484 0 186 1.54131 186 3.46273ZM179.872 3.46273C179.872 5.00404 180.993 6.22869 182.531 6.22869C184.027 6.22869 185.128 5.00404 185.128 3.48385C185.128 1.94254 184.027 0.69677 182.51 0.69677C180.993 0.69677 179.872 1.94254 179.872 3.46273ZM181.97 5.27854H181.18V1.81581C181.492 1.75245 181.928 1.71028 182.489 1.71028C183.133 1.71028 183.424 1.81581 183.674 1.96366C183.861 2.11143 184.006 2.38593 184.006 2.72372C184.006 3.10374 183.715 3.39936 183.299 3.52609V3.56826C183.632 3.69498 183.819 3.94836 183.923 4.41288C184.027 4.94067 184.089 5.15181 184.172 5.27854H183.32C183.217 5.15181 183.154 4.83515 183.05 4.434C182.988 4.05389 182.78 3.885 182.344 3.885H181.97V5.27854ZM181.991 3.31496H182.365C182.801 3.31496 183.154 3.16711 183.154 2.8082C183.154 2.49146 182.926 2.28032 182.427 2.28032C182.219 2.28032 182.074 2.30144 181.991 2.32257V3.31496Z" fill="#F46900"/>
</g>
<defs>
<clipPath id="clip0_1657_2089">
<rect width="186" height="44" fill="white"/>
</clipPath>
</defs>
</svg>
